<svg width="259" height="59" viewBox="0 0 259 59" fill="none" xmlns="http://www.w3.org/2000/svg">
<path d="M2.352 38.7667V37.8067C2.352 37.1347 2.688 36.7987 3.36 36.7987H7.44C8.112 36.7987 8.448 37.1347 8.448 37.8067V38.1907C8.448 39.4067 8.688 40.2387 9.168 40.6867C9.648 41.1347 10.528 41.3587 11.808 41.3587H14.064C15.312 41.3587 16.176 41.1187 16.656 40.6387C17.168 40.1587 17.424 39.2627 17.424 37.9507V37.3747C17.424 36.4467 17.04 35.7427 16.272 35.2627C15.536 34.7507 14.608 34.4467 13.488 34.3507C12.368 34.2547 11.152 34.0787 9.84 33.8227C8.56 33.5347 7.36 33.1827 6.24 32.7667C5.12 32.3187 4.176 31.4707 3.408 30.2227C2.672 28.9427 2.304 27.3107 2.304 25.3267V23.6467C2.304 21.1507 3.008 19.2147 4.416 17.8387C5.824 16.4627 7.776 15.7747 10.272 15.7747H15.072C17.6 15.7747 19.568 16.4627 20.976 17.8387C22.384 19.2147 23.088 21.1507 23.088 23.6467V24.5587C23.088 25.2307 22.752 25.5667 22.08 25.5667H18C17.328 25.5667 16.992 25.2307 16.992 24.5587V24.2707C16.992 23.0227 16.752 22.1747 16.272 21.7267C15.792 21.2787 14.912 21.0547 13.632 21.0547H11.76C10.448 21.0547 9.552 21.3107 9.072 21.8227C8.624 22.3027 8.4 23.2627 8.4 24.7027V25.6147C8.4 27.1187 9.712 27.9827 12.336 28.2067C15.056 28.4307 17.472 28.9747 19.584 29.8387C20.704 30.3187 21.632 31.1827 22.368 32.4307C23.136 33.6467 23.52 35.2147 23.52 37.1347V38.7667C23.52 41.2627 22.816 43.1987 21.408 44.5747C20 45.9507 18.048 46.6387 15.552 46.6387H10.32C7.824 46.6387 5.872 45.9507 4.464 44.5747C3.056 43.1987 2.352 41.2627 2.352 38.7667ZM40.227 46.6387H35.955C33.427 46.6387 31.475 45.9667 30.099 44.6227C28.723 43.2787 28.035 41.3427 28.035 38.8147V29.9827C28.035 27.4547 28.723 25.5187 30.099 24.1747C31.475 22.8307 33.427 22.1587 35.955 22.1587H40.227C42.723 22.1587 44.659 22.8467 46.035 24.2227C47.443 25.5667 48.147 27.4867 48.147 29.9827V38.8147C48.147 41.3107 47.443 43.2467 46.035 44.6227C44.659 45.9667 42.723 46.6387 40.227 46.6387ZM36.867 41.4067H39.315C40.339 41.4067 41.059 41.1987 41.475 40.7827C41.923 40.3667 42.147 39.6467 42.147 38.6227V30.1747C42.147 29.1507 41.923 28.4307 41.475 28.0147C41.059 27.5987 40.339 27.3907 39.315 27.3907H36.867C35.843 27.3907 35.123 27.5987 34.707 28.0147C34.291 28.4307 34.083 29.1507 34.083 30.1747V38.6227C34.083 39.6467 34.291 40.3667 34.707 40.7827C35.123 41.1987 35.843 41.4067 36.867 41.4067ZM58.2649 46.6387H54.1849C53.5129 46.6387 53.1769 46.3027 53.1769 45.6307V13.9027C53.1769 13.2307 53.5129 12.8947 54.1849 12.8947H58.2649C58.9369 12.8947 59.2729 13.2307 59.2729 13.9027V45.6307C59.2729 46.3027 58.9369 46.6387 58.2649 46.6387ZM65.0363 18.0307V13.8547C65.0363 13.2147 65.3563 12.8947 65.9963 12.8947H70.1723C70.8123 12.8947 71.1323 13.1987 71.1323 13.8067V18.0307C71.1323 18.6707 70.8123 18.9907 70.1723 18.9907H65.9963C65.3563 18.9907 65.0363 18.6707 65.0363 18.0307ZM65.0363 45.6307V23.1667C65.0363 22.4947 65.3563 22.1587 65.9963 22.1587H70.1243C70.7963 22.1587 71.1323 22.4947 71.1323 23.1667V45.6307C71.1323 46.0467 71.0523 46.3187 70.8923 46.4467C70.7643 46.5747 70.5243 46.6387 70.1723 46.6387H66.0443C65.3723 46.6387 65.0363 46.3027 65.0363 45.6307ZM85.6316 46.6387H83.6636C81.1996 46.6387 79.3276 45.9667 78.0476 44.6227C76.7996 43.2787 76.1756 41.3427 76.1756 38.8147V29.9827C76.1756 27.4547 76.7996 25.5187 78.0476 24.1747C79.3276 22.8307 81.1996 22.1587 83.6636 22.1587H85.6316C86.6236 22.1587 87.5676 22.3827 88.4636 22.8307C89.3596 23.2467 89.9836 23.8867 90.3356 24.7507H90.5276V13.9027C90.5276 13.2307 90.8636 12.8947 91.5356 12.8947H95.6156C96.2876 12.8947 96.6236 13.2307 96.6236 13.9027V45.6307C96.6236 46.3027 96.2876 46.6387 95.6156 46.6387H91.5356C90.8636 46.6387 90.5276 46.3027 90.5276 45.6307V44.0467H90.3356C89.9836 44.9107 89.3596 45.5667 88.4636 46.0147C87.5676 46.4307 86.6236 46.6387 85.6316 46.6387ZM90.5276 37.7107V31.0867C90.5276 28.6547 89.4236 27.4387 87.2156 27.4387H85.0556C84.0316 27.4387 83.3116 27.6627 82.8956 28.1107C82.4796 28.5267 82.2716 29.2467 82.2716 30.2707V38.5267C82.2716 39.5507 82.4796 40.2867 82.8956 40.7347C83.3116 41.1507 84.0316 41.3587 85.0556 41.3587H87.2156C89.4236 41.3587 90.5276 40.1427 90.5276 37.7107Z" fill="#B0BEC5"/>
<path d="M163.301 45H152.693C150.165 45 148.213 44.328 146.837 42.984C145.461 41.64 144.773 39.704 144.773 37.176V28.344C144.773 25.816 145.461 23.88 146.837 22.536C148.213 21.192 150.165 20.52 152.693 20.52H156.485C159.013 20.52 160.965 21.192 162.341 22.536C163.717 23.88 164.405 25.816 164.405 28.344V34.44C164.405 35.112 164.069 35.448 163.397 35.448H151.349C150.965 35.448 150.773 35.624 150.773 35.976V37.032C150.773 38.024 150.981 38.744 151.397 39.192C151.845 39.608 152.581 39.816 153.605 39.816H163.301C163.973 39.816 164.309 40.168 164.309 40.872V44.04C164.309 44.392 164.229 44.648 164.069 44.808C163.941 44.936 163.685 45 163.301 45ZM151.349 31.368H157.877C158.229 31.368 158.405 31.192 158.405 30.84V28.536C158.405 27.512 158.197 26.792 157.781 26.376C157.365 25.96 156.645 25.752 155.621 25.752H153.605C152.581 25.752 151.861 25.96 151.445 26.376C151.029 26.792 150.821 27.512 150.821 28.536V30.84C150.821 31.192 150.997 31.368 151.349 31.368ZM177.564 45H176.412C173.884 45 171.932 44.328 170.556 42.984C169.18 41.64 168.492 39.704 168.492 37.176V28.344C168.492 25.816 169.18 23.88 170.556 22.536C171.932 21.192 173.884 20.52 176.412 20.52H187.5C188.204 20.52 188.556 20.856 188.556 21.528V43.992C188.556 44.664 188.204 45 187.5 45H183.468C182.796 45 182.46 44.664 182.46 43.992V42.408H182.268C181.916 43.272 181.292 43.928 180.396 44.376C179.5 44.792 178.556 45 177.564 45ZM182.46 36.072V26.328C182.46 25.976 182.268 25.8 181.884 25.8H177.372C176.348 25.8 175.628 26.024 175.212 26.472C174.796 26.888 174.588 27.608 174.588 28.632V36.888C174.588 37.912 174.796 38.648 175.212 39.096C175.628 39.512 176.348 39.72 177.372 39.72H179.148C181.356 39.72 182.46 38.504 182.46 36.072ZM198.904 45H194.824C194.152 45 193.816 44.664 193.816 43.992V21.528C193.816 20.856 194.152 20.52 194.824 20.52H198.904C199.576 20.52 199.912 20.856 199.912 21.528V23.16H200.104C200.456 22.296 201.08 21.64 201.976 21.192C202.872 20.744 203.816 20.52 204.808 20.52H206.536C207.176 20.52 207.496 20.856 207.496 21.528V24.84C207.496 25.224 207.416 25.496 207.256 25.656C207.128 25.784 206.888 25.832 206.536 25.8H203.224C201.016 25.8 199.912 27.048 199.912 29.544V43.992C199.912 44.664 199.576 45 198.904 45ZM226.15 40.728V44.04C226.15 44.392 226.07 44.648 225.91 44.808C225.782 44.936 225.526 45 225.142 45H217.99C215.462 45 213.51 44.328 212.134 42.984C210.758 41.64 210.07 39.704 210.07 37.176V28.344C210.07 25.816 210.758 23.88 212.134 22.536C213.51 21.192 215.462 20.52 217.99 20.52H225.142C225.814 20.52 226.15 20.856 226.15 21.528V24.84C226.15 25.192 226.07 25.448 225.91 25.608C225.782 25.736 225.526 25.8 225.142 25.8H218.95C217.958 25.8 217.238 26.024 216.79 26.472C216.374 26.888 216.166 27.608 216.166 28.632V36.888C216.166 37.912 216.374 38.648 216.79 39.096C217.238 39.512 217.958 39.72 218.95 39.72H225.142C225.814 39.72 226.15 40.056 226.15 40.728ZM235.373 45H231.293C230.621 45 230.285 44.664 230.285 43.992V12.264C230.285 11.592 230.621 11.256 231.293 11.256H235.373C236.045 11.256 236.381 11.592 236.381 12.264V23.112H236.573C237.277 21.384 238.845 20.52 241.277 20.52H242.813C247.837 20.52 250.349 23.128 250.349 28.344V43.992C250.349 44.664 249.997 45 249.293 45H245.261C244.589 45 244.253 44.664 244.253 43.992V28.632C244.253 27.608 244.029 26.888 243.581 26.472C243.165 26.024 242.445 25.8 241.421 25.8H239.693C237.485 25.8 236.381 27.016 236.381 29.448V43.992C236.381 44.664 236.045 45 235.373 45Z" fill="#B0BEC5"/>
<path d="M136.336 8.69434C137.717 8.69434 138.836 9.81363 138.836 11.1943V47.8057C138.836 49.1863 137.717 50.3057 136.336 50.3057H107.912C106.531 50.3057 105.412 49.1863 105.412 47.8057V20.6992L110.421 15.9316L110.432 15.9209L110.441 15.9102L117.178 8.69434H136.336Z" fill="#596063" stroke="#B0BEC5"/>
<rect x="122.943" y="14.75" width="11.4747" height="1.63889" fill="#B0BEC5"/>
<rect x="122.943" y="19.667" width="11.4747" height="1.63889" fill="#B0BEC5"/>
<rect x="122.943" y="26.2227" width="11.4747" height="1.63889" fill="#B0BEC5"/>
<rect x="122.943" y="31.1387" width="11.4747" height="1.63889" fill="#B0BEC5"/>
<rect x="122.943" y="37.6943" width="11.4747" height="1.63889" fill="#B0BEC5"/>
<rect x="113.107" y="42.6113" width="21.3101" height="1.63889" fill="#B0BEC5"/>
<path d="M104.114 33.483C104.114 38.964 108.558 43.4073 114.04 43.4073C119.523 43.4073 123.967 38.964 123.967 33.483C123.967 28.0019 119.523 23.5586 114.04 23.5586C108.558 23.5586 104.114 28.0019 104.114 33.483Z" stroke="#B0BEC5" stroke-width="1.5" stroke-linecap="round" stroke-linejoin="round"/>
<path d="M101.632 45.8886L107.029 40.4922" stroke="#B0BEC5" stroke-width="1.5" stroke-linecap="round" stroke-linejoin="round"/>
<path d="M109.169 37.0257V36.6257C109.169 36.3457 109.309 36.2057 109.589 36.2057H111.289C111.569 36.2057 111.709 36.3457 111.709 36.6257V36.7857C111.709 37.2923 111.809 37.639 112.009 37.8257C112.209 38.0123 112.576 38.1057 113.109 38.1057H114.049C114.569 38.1057 114.929 38.0057 115.129 37.8057C115.343 37.6057 115.449 37.2323 115.449 36.6857V36.4457C115.449 36.059 115.289 35.7657 114.969 35.5657C114.663 35.3523 114.276 35.2257 113.809 35.1857C113.343 35.1457 112.836 35.0723 112.289 34.9657C111.756 34.8457 111.256 34.699 110.789 34.5257C110.323 34.339 109.929 33.9857 109.609 33.4657C109.303 32.9323 109.149 32.2523 109.149 31.4257V30.7257C109.149 29.6857 109.443 28.879 110.029 28.3057C110.616 27.7323 111.429 27.4457 112.469 27.4457H114.469C115.523 27.4457 116.343 27.7323 116.929 28.3057C117.516 28.879 117.809 29.6857 117.809 30.7257V31.1057C117.809 31.3857 117.669 31.5257 117.389 31.5257H115.689C115.409 31.5257 115.269 31.3857 115.269 31.1057V30.9857C115.269 30.4657 115.169 30.1123 114.969 29.9257C114.769 29.739 114.403 29.6457 113.869 29.6457H113.089C112.543 29.6457 112.169 29.7523 111.969 29.9657C111.783 30.1657 111.689 30.5657 111.689 31.1657V31.5457C111.689 32.1723 112.236 32.5323 113.329 32.6257C114.463 32.719 115.469 32.9457 116.349 33.3057C116.816 33.5057 117.203 33.8657 117.509 34.3857C117.829 34.8923 117.989 35.5457 117.989 36.3457V37.0257C117.989 38.0657 117.696 38.8723 117.109 39.4457C116.523 40.019 115.709 40.3057 114.669 40.3057H112.489C111.449 40.3057 110.636 40.019 110.049 39.4457C109.463 38.8723 109.169 38.0657 109.169 37.0257Z" fill="#B0BEC5"/>
</svg>
